<?xml version="1.0" encoding="UTF-8"?>
<svg version="1.1" xmlns="http://www.w3.org/2000/svg" width="864" height="864">
<path d="M0 0 C285.12 0 570.24 0 864 0 C864 285.12 864 570.24 864 864 C578.88 864 293.76 864 0 864 C0 578.88 0 293.76 0 0 Z " fill="#000000" transform="translate(0,0)"/>
<path d="M0 0 C285.12 0 570.24 0 864 0 C864 285.12 864 570.24 864 864 C578.88 864 293.76 864 0 864 C0 578.88 0 293.76 0 0 Z M209 90 C208.29311035 90.47034668 207.5862207 90.94069336 206.85791016 91.42529297 C190.92194861 102.06028044 175.72955062 113.73060346 161.58203125 126.6640625 C160.16516447 127.94588751 158.74184074 129.22113713 157.29077148 130.46411133 C151.39828791 135.51938702 145.91386063 140.937686 140.4375 146.4375 C139.53064453 147.34048828 138.62378906 148.24347656 137.68945312 149.17382812 C132.58323164 154.2874553 127.68316069 159.49768512 123 165 C122.14277344 165.97582031 121.28554687 166.95164063 120.40234375 167.95703125 C51.65127624 247.60367206 18.60851392 353.47129734 25.16001892 463.98062134 C31.10934297 543.07513716 60.57624339 622.34051502 111 684 C111.7528125 684.94230469 112.505625 685.88460937 113.28125 686.85546875 C117.58190202 692.19446312 122.03852995 697.3582387 126.6640625 702.41796875 C127.94588751 703.83483553 129.22113713 705.25815926 130.46411133 706.70922852 C135.51938702 712.60171209 140.937686 718.08613937 146.4375 723.5625 C147.34048828 724.46935547 148.24347656 725.37621094 149.17382812 726.31054688 C154.2867376 731.41605171 159.48065879 736.33721849 165 741 C165.63446045 741.54116455 166.2689209 742.0823291 166.92260742 742.63989258 C237.08985464 802.14770864 325.96213913 837.0881566 418 840 C419.03656738 840.03319336 420.07313477 840.06638672 421.14111328 840.10058594 C515.22056276 842.59133129 610.50240559 812.10431551 684 753 C684.94875 752.24332031 685.8975 751.48664062 686.875 750.70703125 C692.20430031 746.40658197 697.36384088 741.95634862 702.41796875 737.3359375 C703.83483553 736.05411249 705.25815926 734.77886287 706.70922852 733.53588867 C712.60171209 728.48061298 718.08613937 723.062314 723.5625 717.5625 C724.46935547 716.65951172 725.37621094 715.75652344 726.31054688 714.82617188 C731.41605171 709.7132624 736.33721849 704.51934121 741 699 C741.54116455 698.36553955 742.0823291 697.7310791 742.63989258 697.07739258 C806.49709443 621.78166901 839.67605584 526.80781268 839.12036133 398.55078125 C831.71315831 319.60327247 803.53630745 241.79711509 753 180 C752.2471875 179.05769531 751.494375 178.11539063 750.71875 177.14453125 C746.41809798 171.80553688 741.96147005 166.6417613 737.3359375 161.58203125 C736.05411249 160.16516447 734.77886287 158.74184074 733.53588867 157.29077148 C728.48061298 151.39828791 723.062314 145.91386063 717.5625 140.4375 C716.65951172 139.53064453 715.75652344 138.62378906 714.82617188 137.68945312 C709.7132624 132.58394829 704.51934121 127.66278151 699 123 C698.36553955 122.45883545 697.7310791 121.9176709 697.07739258 121.36010742 C658.89726553 88.98010011 615.21883334 63.64633887 568 47 C567.00677734 46.64744141 566.01355469 46.29488281 564.99023438 45.93164062 C485.46678522 18.10104417 395.46016273 16.08981692 209 90 Z " fill="#fefefe00" transform="translate(0,0)"/>
<path d="M0 0 C16.53307697 9.76697801 30.46961479 25.38631378 35.5859375 44.1328125 C37.01118113 50.67307213 37.49798213 57.09763973 37.59863281 63.77929688 C37.63087952 64.80432312 37.66312622 65.82934937 37.6963501 66.88543701 C37.80487936 80.72749786 32.84230694 91.97191057 23.25499344 101.94701767 C9.14178368 115.48476627 -10.49466898 114.34212196 -28.85009766 113.98242188 C-32.96797822 113.90444651 -37.05492332 113.9454548 -41.17041016 114.10546875 C-60.87198867 114.86833456 -79.25712733 115.11893152 -94.75805664 101.46795654 C-105.70895935 91.01019095 -113.57833727 79.67542021 -114.44610596 64.13153076 C-114.44085975 60.61922335 -114.26454201 57.15811585 -114.02636719 53.65429688 C-113.97607361 52.44757324 -113.92578003 51.24084961 -113.8739624 49.99755859 C-113.08540804 33.83847365 -110.65458182 17.74707958 -98.78167725 5.91571045 C-76.62494 -13.43683159 -25.26637389 -12.72798454 0 0 Z " fill="#FDFDFD" transform="translate(464.4013671875,513.345703125)"/>
<path d="M0 0 C16.53307697 9.76697801 30.46961479 25.38631378 35.5859375 44.1328125 C37.01118113 50.67307213 37.49798213 57.09763973 37.59863281 63.77929688 C37.63087952 64.80432312 37.66312622 65.82934937 37.6963501 66.88543701 C37.80487936 80.72749786 32.84230694 91.97191057 23.25499344 101.94701767 C9.14178368 115.48476627 -10.49466898 114.34212196 -28.85009766 113.98242188 C-32.96797822 113.90444651 -37.05492332 113.9454548 -41.17041016 114.10546875 C-60.87198867 114.86833456 -79.25712733 115.11893152 -94.75805664 101.46795654 C-105.70895935 91.01019095 -113.57833727 79.67542021 -114.44610596 64.13153076 C-114.44085975 60.61922335 -114.26454201 57.15811585 -114.02636719 53.65429688 C-113.97607361 52.44757324 -113.92578003 51.24084961 -113.8739624 49.99755859 C-113.08540804 33.83847365 -110.65458182 17.74707958 -98.78167725 5.91571045 C-76.62494 -13.43683159 -25.26637389 -12.72798454 0 0 Z " fill="#FDFDFD" transform="translate(464.4013671875,387.345703125)"/>
<path d="M0 0 C14.70028611 -0.38551836 29.39737974 -0.69788818 44.10160732 -0.88080692 C50.93100345 -0.96804351 57.75701054 -1.08667666 64.58422852 -1.2824707 C71.18478501 -1.47167227 77.78277343 -1.56908923 84.38615608 -1.61291313 C86.89301712 -1.64410046 89.39970629 -1.70500881 91.90505791 -1.79741096 C103.82064081 -2.21902242 113.58093563 -2.51865919 122.78928471 5.85675907 C129.03494187 12.26819629 134.0585367 17.92933103 134.25634766 27.23486328 C134.17175293 28.2917334 134.0871582 29.34860352 134 30.4375 C133.96052246 31.55624512 133.92104492 32.67499023 133.88037109 33.82763672 C133.40388666 39.19539587 132.62931354 43.07986514 128.6640625 46.88671875 C124.81834495 49.7791142 119.93333553 53 115 53 C115 53.66 115 54.32 115 55 C115.69480469 55.27714844 116.38960937 55.55429687 117.10546875 55.83984375 C118.06066406 56.22269531 119.01585937 56.60554687 120 57 C121.02738281 57.35191406 122.05476562 57.70382812 123.11328125 58.06640625 C126.89864708 59.83660785 129.91611042 61.32096575 132 65 C133.58550699 73.19391146 132.67148205 81.74325779 132 90 C135.96 90 139.92 90 144 90 C144 97.92 144 105.84 144 114 C137.21782752 114.25385069 130.45234549 114.47224268 123.66918945 114.60424805 C121.36718705 114.65929207 119.06556441 114.73415728 116.76489258 114.82983398 C95.22834418 115.70249586 95.22834418 115.70249586 87.96875 109.65625 C81.91336207 101.87953353 82.79090383 93.15560255 83.3125 83.8125 C83.36778333 82.08023491 83.41795474 80.34779876 83.46289062 78.61523438 C83.57370151 74.40240615 83.78856766 70.21369695 84 66 C76.08 66 68.16 66 60 66 C60 71.94 60 77.88 60 84 C62.64 84 65.28 84 68 84 C68 93.9 68 103.8 68 114 C45.56 114 23.12 114 0 114 C0 104.1 0 94.2 0 84 C3.96 84 7.92 84 12 84 C12 66.18 12 48.36 12 30 C8.04 30 4.08 30 0 30 C0 20.1 0 10.2 0 0 Z " fill="#FDFDFD" transform="translate(510,510)"/>
<path d="M0 0 C17.15115032 -0.24877919 34.30074962 -0.45120433 51.45320606 -0.56993389 C59.4182752 -0.62653944 67.38213985 -0.70363936 75.34643555 -0.82983398 C82.29218008 -0.9398367 89.23705206 -1.01052402 96.18364352 -1.03497344 C99.85883253 -1.04925644 103.53152657 -1.08255624 107.20591164 -1.16303062 C132.47117578 -1.69414739 132.47117578 -1.69414739 138.92239952 3.47832298 C143.19247953 7.86411 145.25213054 12.72694338 145.2462616 18.80229187 C145.18948746 19.68609024 145.13271332 20.56988861 145.07421875 21.48046875 C145.05865433 22.41933426 145.0430899 23.35819977 145.02705383 24.32551575 C144.96614367 27.28367663 144.82836755 30.23218098 144.6875 33.1875 C144.63223819 35.2088506 144.58206302 37.23034701 144.53710938 39.25195312 C144.42610371 44.17454987 144.21109141 49.07666598 144 54 C132.12 54 120.24 54 108 54 C108 46.08 108 38.16 108 30 C92.16 30 76.32 30 60 30 C60 33.96 60 37.92 60 42 C66.93 42 73.86 42 81 42 C81 49.92 81 57.84 81 66 C74.07 66 67.14 66 60 66 C60 71.94 60 77.88 60 84 C75.84 84 91.68 84 108 84 C108 76.74 108 69.48 108 62 C119.88 62 131.76 62 144 62 C144.25432455 67.64394992 144.47245293 73.2676973 144.60424805 78.9128418 C144.65920367 80.82694149 144.73400406 82.74058712 144.82983398 84.65307617 C144.96500139 87.42220103 145.0259868 90.18518403 145.07421875 92.95703125 C145.13099289 93.79708206 145.18776703 94.63713287 145.2462616 95.50263977 C145.25228482 101.44741371 143.07710642 106.21718496 138.92239952 110.49932289 C129.97471209 117.71117538 115.88340754 115.35308043 105.02809739 115.11533332 C101.33012653 115.04610021 97.63203641 115.04007125 93.93351746 115.02705383 C86.94539501 114.99299862 79.95918805 114.90292326 72.97190541 114.79220945 C65.0107678 114.66883033 57.04953382 114.60867176 49.08767664 114.55355966 C32.72382279 114.43888588 16.36260432 114.23734125 0 114 C0 104.1 0 94.2 0 84 C3.96 84 7.92 84 12 84 C12 66.18 12 48.36 12 30 C8.04 30 4.08 30 0 30 C0 20.1 0 10.2 0 0 Z " fill="#FEFEFE" transform="translate(198,258)"/>
<path d="M0 0 C31.49758479 -4.59218357 31.49758479 -4.59218357 43.47020149 3.84005737 C52.00144063 10.58493355 59.25880946 18.74987853 66.42718506 26.88659668 C69.60890504 30.45324617 72.90389293 33.91209484 76.18945312 37.3828125 C82.57288168 44.15817418 88.81234641 51.04538734 95 58 C95.33 48.76 95.66 39.52 96 30 C92.04 30 88.08 30 84 30 C84 20.1 84 10.2 84 0 C103.8 0 123.6 0 144 0 C144 9.9 144 19.8 144 30 C140.04 30 136.08 30 132 30 C132 49.8 132 69.6 132 90 C135.96 90 139.92 90 144 90 C144 97.92 144 105.84 144 114 C129.75874871 117.94164007 114.89550607 120.47490546 101 114 C88.98778888 106.36834275 79.02878835 95.26476278 69.3125 85 C68.65575539 84.30644661 67.99901077 83.61289322 67.32236481 82.89832306 C59.01872613 74.09456874 51.00422055 65.08693057 43 56 C42.67 67.22 42.34 78.44 42 90 C45.96 90 49.92 90 54 90 C54 97.92 54 105.84 54 114 C36.18 114 18.36 114 0 114 C0 106.08 0 98.16 0 90 C3.96 90 7.92 90 12 90 C12 70.2 12 50.4 12 30 C8.04 30 4.08 30 0 30 C0 20.1 0 10.2 0 0 Z " fill="#FDFDFD" transform="translate(510,384)"/>
<path d="M0 0 C1.23589874 0.00416931 1.23589874 0.00416931 2.49676514 0.00842285 C7.32836424 0.0385248 12.1487511 0.15164237 16.97542 0.37376022 C18.47567683 0.44168271 19.9765105 0.49797463 21.47765923 0.54198074 C33.07077396 0.93695276 33.07077396 0.93695276 36.77005005 4.50311279 C38.39477539 6.99365234 38.39477539 6.99365234 39.59315491 9.47299194 C39.91303879 10.1006546 40.23292267 10.72831726 40.5625 11.375 C41.2225 11.375 41.8825 11.375 42.5625 11.375 C43.31048072 9.89479918 44.03878097 8.40463385 44.7578125 6.91015625 C46.89824833 3.59020365 47.86760186 2.53597168 51.76855469 1.63232422 C55.69983207 1.488497 59.50803811 1.59188265 63.4375 1.8125 C70.429375 2.0909375 70.429375 2.0909375 77.5625 2.375 C77.5625 16.235 77.5625 30.095 77.5625 44.375 C65.6825 44.375 53.8025 44.375 41.5625 44.375 C41.5625 40.415 41.5625 36.455 41.5625 32.375 C21.7625 32.375 1.9625 32.375 -18.4375 32.375 C-18.4375 50.195 -18.4375 68.015 -18.4375 86.375 C1.3625 86.375 21.1625 86.375 41.5625 86.375 C41.5625 84.395 41.5625 82.415 41.5625 80.375 C35.6225 80.375 29.6825 80.375 23.5625 80.375 C23.5625 74.435 23.5625 68.495 23.5625 62.375 C41.3825 62.375 59.2025 62.375 77.5625 62.375 C77.5625 69.965 77.5625 77.555 77.5625 85.375 C68.5625 91.375 68.5625 91.375 66.5625 91.375 C66.5625 92.035 66.5625 92.695 66.5625 93.375 C67.26375 93.6225 67.965 93.87 68.6875 94.125 C72.14325125 95.62750054 74.69535154 96.88593705 77.5625 99.375 C78.30526278 102.32056785 78.13243329 105.1110315 77.9375 108.125 C77.89689453 109.31416016 77.89689453 109.31416016 77.85546875 110.52734375 C77.78497273 112.47773366 77.67735499 114.42671901 77.5625 116.375 C63.07281539 117.05940693 48.5853206 117.56706571 34.08263874 117.87755299 C27.34362872 118.02573491 20.61627234 118.23037213 13.88354492 118.56274414 C-36.0682035 120.9613099 -36.0682035 120.9613099 -51.68174744 107.29289246 C-62.29484069 96.98790918 -69.63157076 84.91539469 -70.48512268 69.85258484 C-70.47646836 66.34070623 -70.30010434 62.87845168 -70.0625 59.375 C-70.01287109 58.16827637 -69.96324219 56.96155273 -69.91210938 55.71826172 C-69.07834475 38.40390248 -66.14574223 22.01491018 -52.87329102 9.92333984 C-38.26027869 -1.42070678 -17.57474212 -0.08698875 0 0 Z " fill="#FEFEFE" transform="translate(264.4375,507.625)"/>
<path d="M0 0 C15.99494365 -0.203529 31.98877442 -0.36915893 47.98465538 -0.46630955 C55.41260666 -0.51262664 62.83969357 -0.57571737 70.26708984 -0.67895508 C76.7444089 -0.76894383 83.22110177 -0.82678979 89.69902861 -0.84679645 C93.12627653 -0.85848399 96.55173385 -0.88574592 99.978405 -0.95157051 C103.81398335 -1.01715025 107.64588262 -1.02589193 111.48193359 -1.02172852 C113.16724182 -1.07026474 113.16724182 -1.07026474 114.88659668 -1.11978149 C121.30014331 -1.04471941 124.63427434 -0.02416831 129.43740845 4.33900452 C130.18854227 5.12335908 130.93967609 5.90771364 131.71357155 6.71583652 C134.13095631 9.13082658 136.62299884 10.80129604 139.51953125 12.59765625 C143.86019364 16.04853825 144.84064992 18.71561485 145.57421875 24.18359375 C145.67750225 26.24179487 145.70865901 28.28087041 145.68823242 30.34155273 C145.68750673 32.41824663 145.82927914 34.45120303 145.98242188 36.52148438 C146.27997839 45.29028863 143.27872151 51.87013079 137.5546875 58.46875 C129.69888213 66.38883987 121.3263078 67.58654697 110.68359375 67.66015625 C105.37250348 67.64668761 100.07777823 67.43082201 94.77404785 67.16729736 C90.84639718 66.99113686 86.91681722 66.91528671 82.98632812 66.83007812 C75.31842511 66.64949985 67.66231938 66.35151172 60 66 C60 71.94 60 77.88 60 84 C63.96 84 67.92 84 72 84 C72 93.9 72 103.8 72 114 C48.24 114 24.48 114 0 114 C0 104.1 0 94.2 0 84 C3.96 84 7.92 84 12 84 C12 66.18 12 48.36 12 30 C8.04 30 4.08 30 0 30 C0 20.1 0 10.2 0 0 Z " fill="#FEFEFE" transform="translate(510,258)"/>
<path d="M0 0 C23.76 0 47.52 0 72 0 C72 11.22 72 22.44 72 34 C68.04 34 64.08 34 60 34 C60 50.5 60 67 60 84 C75.84 84 91.68 84 108 84 C108 72.12 108 60.24 108 48 C119.88 48 131.76 48 144 48 C144.25359611 55.63606053 144.47212124 63.25735794 144.60424805 70.89428711 C144.65934163 73.4872401 144.73424308 76.07985484 144.82983398 78.67163086 C144.96431788 82.41344747 145.02587053 86.15072719 145.07421875 89.89453125 C145.13099289 91.04081497 145.18776703 92.18709869 145.2462616 93.36811829 C145.25138789 100.15703532 143.83784082 105.71258252 138.92239952 110.65580177 C129.90177585 117.65993619 115.8464511 115.35227103 105.02809739 115.11533332 C101.33012653 115.04610021 97.63203641 115.04007125 93.93351746 115.02705383 C86.94539501 114.99299862 79.95918805 114.90292326 72.97190541 114.79220945 C65.0107678 114.66883033 57.04953382 114.60867176 49.08767664 114.55355966 C32.72382279 114.43888588 16.36260432 114.23734125 0 114 C0 104.1 0 94.2 0 84 C3.96 84 7.92 84 12 84 C12 66.18 12 48.36 12 30 C8.04 30 4.08 30 0 30 C0 20.1 0 10.2 0 0 Z " fill="#FEFEFE" transform="translate(198,384)"/>
<path d="M0 0 C23.76 0 47.52 0 72 0 C72 11.22 72 22.44 72 34 C68.04 34 64.08 34 60 34 C60 50.5 60 67 60 84 C75.84 84 91.68 84 108 84 C108 72.12 108 60.24 108 48 C119.88 48 131.76 48 144 48 C144.25359611 55.63606053 144.47212124 63.25735794 144.60424805 70.89428711 C144.65934163 73.4872401 144.73424308 76.07985484 144.82983398 78.67163086 C144.96431788 82.41344747 145.02587053 86.15072719 145.07421875 89.89453125 C145.13099289 91.04081497 145.18776703 92.18709869 145.2462616 93.36811829 C145.25138789 100.15703532 143.83784082 105.71258252 138.92239952 110.65580177 C129.90177585 117.65993619 115.8464511 115.35227103 105.02809739 115.11533332 C101.33012653 115.04610021 97.63203641 115.04007125 93.93351746 115.02705383 C86.94539501 114.99299862 79.95918805 114.90292326 72.97190541 114.79220945 C65.0107678 114.66883033 57.04953382 114.60867176 49.08767664 114.55355966 C32.72382279 114.43888588 16.36260432 114.23734125 0 114 C0 104.1 0 94.2 0 84 C3.96 84 7.92 84 12 84 C12 66.18 12 48.36 12 30 C8.04 30 4.08 30 0 30 C0 20.1 0 10.2 0 0 Z " fill="#FEFEFE" transform="translate(354,258)"/>
<path d="M0 0 C19.8 0 39.6 0 60 0 C60 17.82 60 35.64 60 54 C40.2 54 20.4 54 0 54 C0 36.18 0 18.36 0 0 Z " fill="#030303" transform="translate(402,540)"/>
<path d="M0 0 C19.8 0 39.6 0 60 0 C60 17.82 60 35.64 60 54 C40.2 54 20.4 54 0 54 C0 36.18 0 18.36 0 0 Z " fill="#030303" transform="translate(402,414)"/>
<path d="M0 0 C11.88 0 23.76 0 36 0 C36 5.94 36 11.88 36 18 C24.12 18 12.24 18 0 18 C0 12.06 0 6.12 0 0 Z " fill="#050505" transform="translate(570,288)"/>
<path d="M0 0 C7.92 0 15.84 0 24 0 C24 5.94 24 11.88 24 18 C16.08 18 8.16 18 0 18 C0 12.06 0 6.12 0 0 Z " fill="#070707" transform="translate(570,540)"/>
</svg>
